<svg xmlns="http://www.w3.org/2000/svg" viewBox="0 0 311 311" clip-path="url(#clip)" width="688" height="688"><defs><clipPath id="clip" clipPathUnits="objectBoundingBox"><rect x="0" y="0" width="311" height="311"/></clipPath></defs><rect x="0" y="0" width="311" height="311" fill="rgb(156, 167, 164)"/><path d="M-141,260L152,365L130,17Z" fill="rgb(51, 50, 49)" fill-opacity="1.00"/><path d="M235,243L339,294L197,389Z" fill="rgb(6, 29, 23)" fill-opacity="0.74"/><path d="M104,246L405,141L145,9Z" fill="rgb(81, 76, 72)" fill-opacity="1.00"/><path d="M239,185L231,298L128,99Z" fill="rgb(246, 220, 205)" fill-opacity="0.51"/><path d="M37,273L1,221L-24,320Z" fill="rgb(221, 237, 231)" fill-opacity="0.76"/><path d="M213,250L92,329L203,216Z" fill="rgb(111, 86, 84)" fill-opacity="0.72"/><path d="M241,114L239,268L311,201Z" fill="rgb(11, 9, 9)" fill-opacity="0.73"/><path d="M160,102L195,167L138,150Z" fill="rgb(205, 188, 174)" fill-opacity="0.71"/><path d="M109,-140L213,-4L96,54Z" fill="rgb(231, 244, 243)" fill-opacity="0.64"/><path d="M151,263L171,172L134,171Z" fill="rgb(177, 160, 151)" fill-opacity="0.87"/><path d="M9,110L95,26L293,114Z" fill="rgb(1, 1, 3)" fill-opacity="0.44"/><path d="M25,153L-4,227L0,74Z" fill="rgb(245, 255, 254)" fill-opacity="0.23"/><path d="M238,270L192,325L236,317Z" fill="rgb(60, 84, 76)" fill-opacity="0.94"/><path d="M174,205L159,230L166,265Z" fill="rgb(59, 39, 31)" fill-opacity="0.59"/><path d="M6,99L92,3L-88,-75Z" fill="rgb(223, 233, 230)" fill-opacity="0.96"/><path d="M186,175L204,170L241,52Z" fill="rgb(9, 6, 6)" fill-opacity="0.53"/><path d="M363,106L290,-48L224,42Z" fill="rgb(242, 253, 254)" fill-opacity="0.76"/><path d="M234,34L194,24L222,15Z" fill="rgb(0, 1, 0)" fill-opacity="0.51"/><path d="M195,163L320,143L170,8Z" fill="rgb(10, 11, 12)" fill-opacity="0.48"/><path d="M308,186L247,258L279,242Z" fill="rgb(73, 77, 73)" fill-opacity="0.71"/><path d="M240,242L195,332L153,307Z" fill="rgb(226, 213, 202)" fill-opacity="0.76"/><path d="M-9,251L13,257L28,247Z" fill="rgb(2, 6, 0)" fill-opacity="0.50"/><path d="M156,-95L117,48L132,47Z" fill="rgb(228, 241, 240)" fill-opacity="0.61"/><path d="M309,168L303,230L277,174Z" fill="rgb(83, 86, 82)" fill-opacity="0.75"/><path d="M262,29L209,-3L383,7Z" fill="rgb(226, 237, 238)" fill-opacity="0.97"/><path d="M80,54L163,441L16,223Z" fill="rgb(24, 23, 24)" fill-opacity="1.00"/><path d="M297,127L235,47L214,187Z" fill="rgb(30, 29, 29)" fill-opacity="0.63"/><path d="M310,223L317,281L264,255Z" fill="rgb(253, 255, 255)" fill-opacity="0.62"/><path d="M148,282L156,307L123,287Z" fill="rgb(178, 174, 156)" fill-opacity="0.64"/><path d="M144,202L163,200L158,237Z" fill="rgb(254, 235, 228)" fill-opacity="0.55"/><path d="M141,283L121,250L198,295Z" fill="rgb(22, 22, 16)" fill-opacity="0.49"/><path d="M313,188L312,213L302,208Z" fill="rgb(222, 234, 233)" fill-opacity="0.59"/><path d="M321,126L302,90L290,121Z" fill="rgb(135, 146, 144)" fill-opacity="0.74"/><path d="M82,60L108,53L109,15Z" fill="rgb(131, 144, 137)" fill-opacity="0.57"/><path d="M284,222L292,208L297,228Z" fill="rgb(188, 198, 193)" fill-opacity="0.59"/><path d="M308,334L266,271L262,346Z" fill="rgb(0, 3, 4)" fill-opacity="0.54"/><path d="M116,198L146,275L179,249Z" fill="rgb(119, 110, 99)" fill-opacity="0.75"/><path d="M157,26L244,23L194,52Z" fill="rgb(49, 54, 50)" fill-opacity="0.50"/><path d="M53,253L54,269L26,279Z" fill="rgb(153, 174, 166)" fill-opacity="0.47"/><path d="M223,165L205,157L216,177Z" fill="rgb(220, 202, 192)" fill-opacity="0.51"/><path d="M291,199L239,235L223,290Z" fill="rgb(27, 29, 28)" fill-opacity="0.57"/><path d="M307,154L293,116L299,155Z" fill="rgb(199, 214, 211)" fill-opacity="0.45"/><path d="M24,241L9,220L2,251Z" fill="rgb(144, 155, 149)" fill-opacity="0.67"/><path d="M19,86L20,100L33,75Z" fill="rgb(43, 46, 42)" fill-opacity="0.62"/><path d="M195,219L203,215L209,257Z" fill="rgb(65, 26, 34)" fill-opacity="0.46"/><path d="M178,109L191,144L140,108Z" fill="rgb(194, 169, 152)" fill-opacity="0.47"/><path d="M130,150L162,136L101,102Z" fill="rgb(158, 137, 113)" fill-opacity="0.38"/><path d="M251,246L288,192L232,155Z" fill="rgb(30, 28, 28)" fill-opacity="0.85"/><path d="M53,86L20,88L28,75Z" fill="rgb(7, 7, 2)" fill-opacity="0.40"/><path d="M42,73L2,81L69,35Z" fill="rgb(201, 213, 209)" fill-opacity="0.76"/><path d="M196,229L187,216L183,242Z" fill="rgb(255, 255, 253)" fill-opacity="0.50"/><path d="M54,88L60,99L59,72Z" fill="rgb(152, 160, 154)" fill-opacity="0.57"/><path d="M154,30L259,-179L55,6Z" fill="rgb(226, 238, 238)" fill-opacity="0.54"/><path d="M55,57L35,103L70,69Z" fill="rgb(31, 31, 28)" fill-opacity="0.60"/><path d="M217,31L248,34L214,54Z" fill="rgb(207, 220, 219)" fill-opacity="0.38"/><path d="M238,237L290,243L274,176Z" fill="rgb(22, 20, 20)" fill-opacity="0.42"/><path d="M178,176L168,162L147,187Z" fill="rgb(60, 44, 36)" fill-opacity="0.47"/><path d="M213,180L183,177L178,225Z" fill="rgb(248, 227, 214)" fill-opacity="0.45"/><path d="M47,266L-38,291L46,270Z" fill="rgb(228, 243, 238)" fill-opacity="0.48"/><path d="M36,129L33,85L0,120Z" fill="rgb(124, 131, 124)" fill-opacity="0.58"/><path d="M67,61L55,51L90,35Z" fill="rgb(218, 232, 225)" fill-opacity="0.44"/><path d="M242,200L231,166L199,290Z" fill="rgb(250, 238, 226)" fill-opacity="0.42"/><path d="M189,248L209,241L199,258Z" fill="rgb(51, 1, 10)" fill-opacity="0.42"/><path d="M34,265L-51,237L1,304Z" fill="rgb(228, 241, 236)" fill-opacity="0.47"/><path d="M47,93L21,84L26,95Z" fill="rgb(212, 220, 213)" fill-opacity="0.34"/><path d="M176,140L203,163L211,125Z" fill="rgb(79, 69, 63)" fill-opacity="0.63"/><path d="M29,156L34,138L26,145Z" fill="rgb(149, 162, 154)" fill-opacity="0.55"/><path d="M199,125L192,27L104,54Z" fill="rgb(31, 30, 30)" fill-opacity="0.76"/><path d="M11,146L-12,140L23,161Z" fill="rgb(3, 8, 1)" fill-opacity="0.44"/><path d="M173,279L208,271L184,229Z" fill="rgb(212, 155, 155)" fill-opacity="0.39"/><path d="M131,163L161,165L128,153Z" fill="rgb(201, 190, 178)" fill-opacity="0.50"/><path d="M64,76L39,99L57,96Z" fill="rgb(164, 176, 168)" fill-opacity="0.29"/><path d="M164,197L152,244L155,185Z" fill="rgb(239, 222, 216)" fill-opacity="0.53"/><path d="M233,70L272,126L264,60Z" fill="rgb(63, 65, 60)" fill-opacity="0.72"/><path d="M218,174L214,206L209,184Z" fill="rgb(9, 4, 0)" fill-opacity="0.42"/><path d="M186,261L178,262L164,230Z" fill="rgb(57, 32, 34)" fill-opacity="0.42"/><path d="M296,114L308,153L306,124Z" fill="rgb(20, 22, 20)" fill-opacity="0.61"/><path d="M270,50L260,78L299,60Z" fill="rgb(208, 220, 220)" fill-opacity="0.63"/><path d="M221,157L233,139L209,140Z" fill="rgb(110, 101, 95)" fill-opacity="0.53"/><path d="M171,217L202,206L195,215Z" fill="rgb(4, 0, 0)" fill-opacity="0.36"/><path d="M219,5L204,32L189,41Z" fill="rgb(160, 169, 166)" fill-opacity="0.53"/><path d="M103,74L148,122L76,102Z" fill="rgb(69, 63, 59)" fill-opacity="0.40"/><path d="M245,46L243,70L266,61Z" fill="rgb(117, 126, 123)" fill-opacity="0.51"/><path d="M303,185L301,212L287,167Z" fill="rgb(30, 29, 26)" fill-opacity="0.50"/><path d="M94,26L90,16L112,32Z" fill="rgb(102, 114, 109)" fill-opacity="0.52"/><path d="M124,208L129,178L163,164Z" fill="rgb(203, 181, 171)" fill-opacity="0.40"/><path d="M224,21L202,22L188,30Z" fill="rgb(7, 9, 5)" fill-opacity="0.39"/><path d="M205,203L187,206L171,139Z" fill="rgb(239, 226, 212)" fill-opacity="0.50"/><path d="M303,165L289,162L286,169Z" fill="rgb(148, 162, 157)" fill-opacity="0.57"/><path d="M265,260L343,241L253,250Z" fill="rgb(231, 248, 247)" fill-opacity="0.46"/><path d="M76,23L85,26L81,8Z" fill="rgb(77, 88, 83)" fill-opacity="0.39"/><path d="M24,57L66,67L76,66Z" fill="rgb(177, 188, 182)" fill-opacity="0.52"/><path d="M257,75L285,85L295,106Z" fill="rgb(0, 3, 3)" fill-opacity="0.41"/><path d="M218,208L208,189L225,208Z" fill="rgb(0, 0, 0)" fill-opacity="0.40"/><path d="M190,184L204,189L211,205Z" fill="rgb(46, 22, 10)" fill-opacity="0.31"/><path d="M227,-32L212,15L234,8Z" fill="rgb(236, 247, 248)" fill-opacity="0.56"/><path d="M156,309L181,384L118,281Z" fill="rgb(46, 51, 44)" fill-opacity="0.70"/><path d="M126,169L108,199L101,163Z" fill="rgb(95, 80, 69)" fill-opacity="0.56"/><path d="M198,50L228,50L204,43Z" fill="rgb(137, 146, 139)" fill-opacity="0.50"/><path d="M142,147L157,159L116,157Z" fill="rgb(14, 12, 9)" fill-opacity="0.51"/><path d="M22,255L27,241L26,264Z" fill="rgb(195, 208, 203)" fill-opacity="0.45"/><path d="M201,265L242,211L234,257Z" fill="rgb(246, 236, 226)" fill-opacity="0.43"/><path d="M145,304L140,286L216,301Z" fill="rgb(255, 255, 237)" fill-opacity="0.26"/><path d="M292,202L301,202L285,182Z" fill="rgb(167, 172, 164)" fill-opacity="0.47"/><path d="M28,142L47,71L57,139Z" fill="rgb(32, 31, 32)" fill-opacity="0.75"/><path d="M231,29L237,10L239,28Z" fill="rgb(16, 21, 17)" fill-opacity="0.44"/><path d="M64,37L57,32L72,23Z" fill="rgb(125, 138, 132)" fill-opacity="0.52"/><path d="M200,231L174,214L172,242Z" fill="rgb(245, 198, 193)" fill-opacity="0.44"/><path d="M161,194L170,180L175,186Z" fill="rgb(197, 176, 160)" fill-opacity="0.59"/><path d="M283,103L276,198L288,155Z" fill="rgb(12, 13, 14)" fill-opacity="0.46"/><path d="M292,86L326,90L302,6Z" fill="rgb(225, 236, 237)" fill-opacity="0.64"/><path d="M173,240L166,217L161,232Z" fill="rgb(46, 35, 31)" fill-opacity="0.49"/><path d="M185,209L176,218L165,204Z" fill="rgb(14, 3, 0)" fill-opacity="0.39"/><path d="M5,134L-8,153L31,121Z" fill="rgb(2, 5, 2)" fill-opacity="0.49"/><path d="M116,186L134,265L151,185Z" fill="rgb(114, 100, 91)" fill-opacity="0.66"/><path d="M10,105L-4,133L-7,75Z" fill="rgb(243, 252, 250)" fill-opacity="0.56"/><path d="M138,171L131,164L126,177Z" fill="rgb(24, 16, 14)" fill-opacity="0.63"/><path d="M168,141L181,109L199,140Z" fill="rgb(163, 136, 123)" fill-opacity="0.35"/><path d="M193,277L190,296L157,275Z" fill="rgb(117, 93, 84)" fill-opacity="0.44"/><path d="M189,150L128,138L180,166Z" fill="rgb(230, 217, 207)" fill-opacity="0.45"/><path d="M112,143L104,88L72,230Z" fill="rgb(11, 7, 11)" fill-opacity="0.62"/><path d="M219,182L230,207L217,200Z" fill="rgb(238, 227, 215)" fill-opacity="0.57"/><path d="M-25,323L265,396L67,256Z" fill="rgb(17, 24, 24)" fill-opacity="0.76"/><path d="M9,145L19,139L4,139Z" fill="rgb(225, 236, 226)" fill-opacity="0.48"/><path d="M225,191L221,205L211,186Z" fill="rgb(218, 205, 195)" fill-opacity="0.52"/><path d="M304,166L302,180L316,172Z" fill="rgb(189, 201, 200)" fill-opacity="0.53"/><path d="M139,218L160,251L162,179Z" fill="rgb(222, 204, 195)" fill-opacity="0.30"/><path d="M202,309L228,286L218,384Z" fill="rgb(53, 69, 59)" fill-opacity="0.50"/><path d="M153,135L135,152L134,115Z" fill="rgb(146, 130, 113)" fill-opacity="0.53"/><path d="M344,116L291,138L289,128Z" fill="rgb(123, 131, 129)" fill-opacity="0.53"/><path d="M222,148L230,161L235,135Z" fill="rgb(75, 68, 62)" fill-opacity="0.50"/><path d="M116,29L94,24L120,48Z" fill="rgb(130, 144, 140)" fill-opacity="0.61"/><path d="M210,262L178,251L190,267Z" fill="rgb(196, 154, 160)" fill-opacity="0.56"/><path d="M95,42L111,47L52,49Z" fill="rgb(166, 178, 173)" fill-opacity="0.72"/><path d="M296,110L303,97L304,121Z" fill="rgb(191, 203, 201)" fill-opacity="0.52"/><path d="M226,280L134,342L215,298Z" fill="rgb(249, 243, 229)" fill-opacity="0.56"/><path d="M198,170L239,182L192,175Z" fill="rgb(87, 65, 52)" fill-opacity="0.38"/><path d="M177,171L159,170L159,150Z" fill="rgb(140, 128, 118)" fill-opacity="0.53"/><path d="M241,50L264,90L211,50Z" fill="rgb(45, 48, 45)" fill-opacity="0.48"/><path d="M228,266L270,259L225,277Z" fill="rgb(51, 73, 65)" fill-opacity="0.52"/><path d="M297,115L286,93L299,91Z" fill="rgb(22, 27, 24)" fill-opacity="0.50"/><path d="M198,288L167,264L200,271Z" fill="rgb(220, 196, 187)" fill-opacity="0.48"/><path d="M157,291L156,279L184,282Z" fill="rgb(47, 43, 39)" fill-opacity="0.42"/><path d="M87,264L121,213L126,322Z" fill="rgb(3, 0, 5)" fill-opacity="0.42"/><path d="M23,151L16,236L62,162Z" fill="rgb(38, 37, 37)" fill-opacity="0.91"/><path d="M44,93L54,79L26,82Z" fill="rgb(19, 20, 18)" fill-opacity="0.53"/><path d="M250,214L254,225L263,220Z" fill="rgb(91, 90, 84)" fill-opacity="0.57"/><path d="M206,25L208,37L232,8Z" fill="rgb(28, 30, 27)" fill-opacity="0.42"/><path d="M248,184L281,154L258,203Z" fill="rgb(65, 63, 59)" fill-opacity="0.53"/><path d="M306,188L289,214L299,222Z" fill="rgb(62, 66, 60)" fill-opacity="0.41"/><path d="M204,112L260,96L253,174Z" fill="rgb(15, 13, 16)" fill-opacity="0.51"/><path d="M185,15L153,21L192,34Z" fill="rgb(65, 73, 70)" fill-opacity="0.58"/><path d="M289,91L307,84L285,79Z" fill="rgb(173, 188, 186)" fill-opacity="0.70"/><path d="M181,105L155,100L173,118Z" fill="rgb(96, 83, 75)" fill-opacity="0.62"/><path d="M286,265L317,286L254,264Z" fill="rgb(78, 107, 99)" fill-opacity="0.60"/><path d="M95,10L82,5L91,21Z" fill="rgb(129, 142, 135)" fill-opacity="0.38"/><path d="M29,266L26,250L3,261Z" fill="rgb(217, 229, 225)" fill-opacity="0.51"/><path d="M154,-19L184,-4L174,21Z" fill="rgb(218, 230, 231)" fill-opacity="0.54"/><path d="M26,100L29,107L16,107Z" fill="rgb(46, 48, 44)" fill-opacity="0.50"/><path d="M185,188L186,206L163,207Z" fill="rgb(163, 137, 126)" fill-opacity="0.42"/><path d="M61,91L57,73L52,88Z" fill="rgb(154, 164, 156)" fill-opacity="0.45"/><path d="M194,145L176,146L187,139Z" fill="rgb(23, 15, 14)" fill-opacity="0.54"/><path d="M308,224L301,206L294,232Z" fill="rgb(89, 96, 92)" fill-opacity="0.47"/><path d="M159,132L187,159L153,153Z" fill="rgb(229, 214, 204)" fill-opacity="0.50"/><path d="M280,79L266,76L260,96Z" fill="rgb(12, 14, 14)" fill-opacity="0.47"/><path d="M196,37L200,35L182,17Z" fill="rgb(154, 161, 158)" fill-opacity="0.50"/><path d="M63,65L49,74L83,93Z" fill="rgb(31, 30, 30)" fill-opacity="0.57"/><path d="M138,18L127,51L121,49Z" fill="rgb(212, 225, 220)" fill-opacity="0.39"/><path d="M217,153L231,125L204,122Z" fill="rgb(194, 196, 175)" fill-opacity="0.10"/><path d="M15,160L26,127L17,142Z" fill="rgb(12, 14, 12)" fill-opacity="0.52"/><path d="M-1,162L-10,187L22,173Z" fill="rgb(135, 150, 140)" fill-opacity="0.49"/><path d="M308,329L300,310L309,276Z" fill="rgb(97, 137, 128)" fill-opacity="0.44"/><path d="M286,122L286,157L263,132Z" fill="rgb(11, 10, 12)" fill-opacity="0.61"/><path d="M76,57L94,52L68,66Z" fill="rgb(129, 138, 130)" fill-opacity="0.48"/><path d="M287,156L292,143L295,155Z" fill="rgb(150, 163, 158)" fill-opacity="0.44"/><path d="M111,228L111,222L103,229Z" fill="rgb(120, 107, 100)" fill-opacity="0.41"/><path d="M306,126L321,125L304,119Z" fill="rgb(226, 241, 242)" fill-opacity="0.46"/><path d="M152,27L142,25L128,56Z" fill="rgb(96, 108, 103)" fill-opacity="0.60"/><path d="M161,164L156,167L135,159Z" fill="rgb(223, 215, 205)" fill-opacity="0.43"/><path d="M150,163L141,165L175,177Z" fill="rgb(34, 30, 28)" fill-opacity="0.48"/><path d="M2,168L12,145L-13,164Z" fill="rgb(142, 149, 141)" fill-opacity="0.55"/><path d="M123,163L118,174L127,172Z" fill="rgb(190, 176, 165)" fill-opacity="0.42"/><path d="M165,219L192,216L198,228Z" fill="rgb(191, 154, 155)" fill-opacity="0.59"/><path d="M164,293L152,243L133,261Z" fill="rgb(64, 65, 58)" fill-opacity="0.36"/><path d="M203,252L182,249L209,246Z" fill="rgb(61, 35, 38)" fill-opacity="0.60"/><path d="M213,190L209,189L212,202Z" fill="rgb(55, 48, 43)" fill-opacity="0.49"/><path d="M177,186L161,207L165,195Z" fill="rgb(45, 26, 20)" fill-opacity="0.53"/><path d="M18,166L-11,154L25,177Z" fill="rgb(47, 51, 46)" fill-opacity="0.49"/><path d="M155,28L122,66L173,26Z" fill="rgb(27, 34, 33)" fill-opacity="0.45"/><path d="M93,43L106,50L95,49Z" fill="rgb(189, 199, 193)" fill-opacity="0.49"/><path d="M0,198L7,202L23,261Z" fill="rgb(177, 195, 183)" fill-opacity="0.28"/><path d="M10,124L16,125L11,131Z" fill="rgb(227, 248, 235)" fill-opacity="0.43"/><path d="M12,249L20,255L-6,246Z" fill="rgb(0, 3, 0)" fill-opacity="0.37"/><path d="M191,239L181,236L207,231Z" fill="rgb(52, 44, 42)" fill-opacity="0.46"/><path d="M10,241L18,243L27,218Z" fill="rgb(82, 89, 85)" fill-opacity="0.62"/><path d="M308,121L307,105L303,114Z" fill="rgb(33, 35, 31)" fill-opacity="0.61"/><path d="M258,79L276,68L292,70Z" fill="rgb(127, 139, 136)" fill-opacity="0.63"/><path d="M132,163L148,163L133,155Z" fill="rgb(205, 192, 182)" fill-opacity="0.55"/><path d="M12,236L4,227L16,234Z" fill="rgb(200, 213, 208)" fill-opacity="0.56"/><path d="M238,23L233,31L236,36Z" fill="rgb(114, 124, 122)" fill-opacity="0.51"/><path d="M20,88L29,107L15,93Z" fill="rgb(44, 47, 42)" fill-opacity="0.57"/><path d="M66,57L67,39L28,47Z" fill="rgb(215, 227, 224)" fill-opacity="0.45"/><path d="M106,25L134,42L91,-105Z" fill="rgb(219, 230, 229)" fill-opacity="0.84"/><path d="M26,142L33,155L34,142Z" fill="rgb(143, 155, 148)" fill-opacity="0.46"/><path d="M308,111L311,99L313,125Z" fill="rgb(205, 224, 223)" fill-opacity="0.47"/><path d="M297,211L310,212L306,220Z" fill="rgb(59, 62, 58)" fill-opacity="0.44"/><path d="M21,140L47,140L18,122Z" fill="rgb(14, 13, 15)" fill-opacity="0.59"/><path d="M-6,99L1,91L33,106Z" fill="rgb(219, 227, 223)" fill-opacity="0.29"/><path d="M189,7L206,7L189,13Z" fill="rgb(95, 107, 101)" fill-opacity="0.48"/><path d="M137,68L108,47L119,41Z" fill="rgb(36, 40, 38)" fill-opacity="0.55"/><path d="M214,184L210,185L214,191Z" fill="rgb(20, 13, 13)" fill-opacity="0.57"/><path d="M170,94L107,37L122,97Z" fill="rgb(19, 17, 19)" fill-opacity="0.61"/><path d="M174,232L197,233L196,223Z" fill="rgb(240, 242, 230)" fill-opacity="0.68"/><path d="M209,174L206,203L213,178Z" fill="rgb(179, 155, 144)" fill-opacity="0.67"/><path d="M190,158L188,151L210,143Z" fill="rgb(43, 40, 37)" fill-opacity="0.50"/><path d="M161,197L166,208L163,219Z" fill="rgb(170, 150, 140)" fill-opacity="0.57"/><path d="M22,248L22,234L11,246Z" fill="rgb(190, 209, 201)" fill-opacity="0.40"/><path d="M269,306L284,294L247,257Z" fill="rgb(16, 27, 25)" fill-opacity="0.56"/><path d="M271,249L300,241L270,240Z" fill="rgb(174, 192, 190)" fill-opacity="0.49"/><path d="M215,19L192,26L203,5Z" fill="rgb(132, 145, 141)" fill-opacity="0.48"/><path d="M192,12L233,18L234,23Z" fill="rgb(190, 205, 203)" fill-opacity="0.41"/><path d="M262,209L279,179L291,191Z" fill="rgb(21, 19, 18)" fill-opacity="0.48"/><path d="M215,205L206,201L225,206Z" fill="rgb(12, 10, 3)" fill-opacity="0.39"/><path d="M151,169L152,183L139,179Z" fill="rgb(235, 224, 222)" fill-opacity="0.51"/><path d="M190,163L194,167L204,151Z" fill="rgb(22, 15, 15)" fill-opacity="0.53"/><path d="M16,73L33,68L10,100Z" fill="rgb(166, 179, 174)" fill-opacity="0.62"/><path d="M183,209L196,178L196,211Z" fill="rgb(255, 243, 238)" fill-opacity="0.34"/><path d="M150,112L139,125L182,122Z" fill="rgb(185, 169, 154)" fill-opacity="0.50"/><path d="M301,133L294,135L297,127Z" fill="rgb(248, 255, 254)" fill-opacity="0.44"/><path d="M308,120L310,137L322,125Z" fill="rgb(197, 211, 212)" fill-opacity="0.45"/><path d="M177,239L188,247L202,241Z" fill="rgb(233, 188, 198)" fill-opacity="0.43"/><path d="M10,163L20,152L6,147Z" fill="rgb(22, 23, 19)" fill-opacity="0.48"/><path d="M109,131L147,91L139,153Z" fill="rgb(104, 92, 77)" fill-opacity="0.46"/><path d="M296,109L260,97L300,119Z" fill="rgb(37, 40, 38)" fill-opacity="0.59"/><path d="M230,173L216,153L228,187Z" fill="rgb(45, 43, 37)" fill-opacity="0.42"/><path d="M228,11L238,21L235,11Z" fill="rgb(11, 20, 15)" fill-opacity="0.53"/><path d="M301,144L299,114L311,156Z" fill="rgb(25, 27, 24)" fill-opacity="0.55"/><path d="M218,206L205,205L231,246Z" fill="rgb(253, 245, 234)" fill-opacity="0.44"/><path d="M166,214L182,206L164,228Z" fill="rgb(27, 22, 20)" fill-opacity="0.52"/><path d="M20,120L33,117L29,129Z" fill="rgb(137, 142, 137)" fill-opacity="0.59"/><path d="M66,36L85,46L88,34Z" fill="rgb(135, 145, 140)" fill-opacity="0.74"/><path d="M176,220L179,242L188,219Z" fill="rgb(163, 119, 118)" fill-opacity="0.37"/><path d="M198,140L182,126L205,133Z" fill="rgb(104, 90, 81)" fill-opacity="0.56"/><path d="M115,38L89,30L92,39Z" fill="rgb(43, 49, 45)" fill-opacity="0.43"/><path d="M302,211L298,223L290,199Z" fill="rgb(57, 59, 55)" fill-opacity="0.49"/><path d="M28,257L20,229L60,259Z" fill="rgb(27, 26, 28)" fill-opacity="0.72"/><path d="M268,108L265,116L273,107Z" fill="rgb(126, 121, 117)" fill-opacity="0.49"/><path d="M122,204L115,227L102,177Z" fill="rgb(53, 42, 37)" fill-opacity="0.44"/><path d="M257,65L222,41L233,29Z" fill="rgb(193, 205, 205)" fill-opacity="0.41"/><path d="M108,111L107,124L123,101Z" fill="rgb(98, 90, 80)" fill-opacity="0.50"/><path d="M213,51L214,82L183,58Z" fill="rgb(13, 13, 13)" fill-opacity="0.47"/><path d="M204,163L213,181L220,167Z" fill="rgb(222, 201, 194)" fill-opacity="0.42"/><path d="M72,58L67,65L47,65Z" fill="rgb(136, 147, 140)" fill-opacity="0.53"/><path d="M246,212L238,206L244,233Z" fill="rgb(24, 17, 16)" fill-opacity="0.51"/><path d="M303,147L312,138L296,111Z" fill="rgb(39, 40, 38)" fill-opacity="0.63"/><path d="M261,245L264,217L280,239Z" fill="rgb(25, 24, 24)" fill-opacity="0.62"/><path d="M215,39L192,46L213,46Z" fill="rgb(40, 42, 37)" fill-opacity="0.58"/><path d="M315,199L310,264L299,243Z" fill="rgb(226, 238, 239)" fill-opacity="0.73"/><path d="M199,35L191,35L197,30Z" fill="rgb(195, 204, 204)" fill-opacity="0.54"/><path d="M243,274L230,324L257,305Z" fill="rgb(14, 37, 34)" fill-opacity="0.47"/><path d="M39,268L24,261L27,271Z" fill="rgb(151, 164, 157)" fill-opacity="0.57"/><path d="M16,183L4,171L1,177Z" fill="rgb(162, 172, 166)" fill-opacity="0.53"/><path d="M173,33L167,29L161,38Z" fill="rgb(118, 128, 125)" fill-opacity="0.57"/><path d="M307,91L297,88L287,99Z" fill="rgb(5, 8, 5)" fill-opacity="0.50"/><path d="M289,111L298,120L290,119Z" fill="rgb(237, 246, 248)" fill-opacity="0.43"/><path d="M197,265L176,263L196,268Z" fill="rgb(108, 102, 95)" fill-opacity="0.62"/><path d="M290,105L282,102L285,98Z" fill="rgb(148, 163, 159)" fill-opacity="0.61"/><path d="M296,157L308,158L306,170Z" fill="rgb(24, 30, 29)" fill-opacity="0.51"/><path d="M159,177L150,167L152,182Z" fill="rgb(209, 199, 194)" fill-opacity="0.50"/><path d="M296,227L283,218L296,215Z" fill="rgb(199, 210, 206)" fill-opacity="0.53"/><path d="M199,295L181,293L206,288Z" fill="rgb(135, 131, 127)" fill-opacity="0.46"/><path d="M5,127L23,123L7,118Z" fill="rgb(94, 105, 99)" fill-opacity="0.54"/><path d="M68,20L70,37L77,18Z" fill="rgb(173, 187, 182)" fill-opacity="0.55"/><path d="M191,237L172,227L171,220Z" fill="rgb(238, 208, 202)" fill-opacity="0.48"/><path d="M278,88L261,91L272,105Z" fill="rgb(109, 113, 109)" fill-opacity="0.42"/><path d="M13,158L18,170L17,161Z" fill="rgb(165, 173, 165)" fill-opacity="0.45"/><path d="M26,142L29,159L17,142Z" fill="rgb(55, 57, 54)" fill-opacity="0.61"/><path d="M146,39L152,29L121,51Z" fill="rgb(105, 118, 112)" fill-opacity="0.57"/><path d="M11,156L2,152L2,160Z" fill="rgb(241, 251, 242)" fill-opacity="0.31"/><path d="M174,240L169,230L160,269Z" fill="rgb(134, 121, 113)" fill-opacity="0.59"/><path d="M148,192L144,206L170,189Z" fill="rgb(204, 176, 169)" fill-opacity="0.48"/><path d="M289,243L300,227L279,245Z" fill="rgb(133, 147, 144)" fill-opacity="0.57"/><path d="M29,190L75,192L81,180Z" fill="rgb(45, 43, 45)" fill-opacity="0.51"/><path d="M110,41L115,25L116,42Z" fill="rgb(164, 176, 172)" fill-opacity="0.58"/><path d="M148,21L160,23L155,30Z" fill="rgb(135, 152, 148)" fill-opacity="0.55"/><path d="M12,155L14,135L18,137Z" fill="rgb(175, 183, 177)" fill-opacity="0.47"/><path d="M48,82L36,92L29,79Z" fill="rgb(44, 46, 43)" fill-opacity="0.62"/><path d="M310,279L265,251L345,223Z" fill="rgb(225, 238, 238)" fill-opacity="0.58"/><path d="M308,215L292,226L301,228Z" fill="rgb(147, 156, 152)" fill-opacity="0.54"/><path d="M17,286L67,258L1,302Z" fill="rgb(62, 84, 76)" fill-opacity="0.60"/><path d="M211,148L194,159L223,160Z" fill="rgb(34, 29, 28)" fill-opacity="0.64"/><path d="M134,192L143,181L130,181Z" fill="rgb(182, 162, 152)" fill-opacity="0.46"/><path d="M175,122L186,138L169,149Z" fill="rgb(177, 157, 147)" fill-opacity="0.56"/><path d="M138,168L144,170L152,167Z" fill="rgb(132, 135, 132)" fill-opacity="0.50"/><path d="M60,90L61,101L44,86Z" fill="rgb(41, 43, 44)" fill-opacity="0.50"/><path d="M250,44L264,52L237,52Z" fill="rgb(209, 221, 221)" fill-opacity="0.51"/><path d="M212,20L221,29L206,32Z" fill="rgb(14, 14, 12)" fill-opacity="0.53"/><path d="M219,20L219,31L225,11Z" fill="rgb(39, 46, 40)" fill-opacity="0.47"/><path d="M217,92L200,79L243,68Z" fill="rgb(51, 50, 47)" fill-opacity="0.67"/><path d="M74,41L64,49L70,34Z" fill="rgb(90, 99, 93)" fill-opacity="0.43"/><path d="M208,162L212,158L196,142Z" fill="rgb(98, 92, 87)" fill-opacity="0.44"/><path d="M87,36L95,52L86,54Z" fill="rgb(64, 68, 63)" fill-opacity="0.55"/><path d="M152,267L163,256L171,282Z" fill="rgb(154, 153, 137)" fill-opacity="0.42"/><path d="M243,192L238,215L249,211Z" fill="rgb(60, 56, 52)" fill-opacity="0.58"/><path d="M176,182L172,174L149,164Z" fill="rgb(48, 37, 30)" fill-opacity="0.51"/><path d="M239,290L237,257L229,283Z" fill="rgb(84, 119, 111)" fill-opacity="0.46"/><path d="M232,143L227,147L230,169Z" fill="rgb(114, 104, 95)" fill-opacity="0.48"/><path d="M204,140L214,133L204,158Z" fill="rgb(18, 16, 15)" fill-opacity="0.57"/><path d="M290,141L267,131L308,137Z" fill="rgb(23, 22, 23)" fill-opacity="0.53"/><path d="M19,239L15,240L18,232Z" fill="rgb(10, 14, 11)" fill-opacity="0.47"/><path d="M122,287L135,272L143,301Z" fill="rgb(116, 106, 89)" fill-opacity="0.35"/><path d="M189,90L180,93L185,105Z" fill="rgb(66, 62, 59)" fill-opacity="0.52"/><path d="M138,38L78,-20L95,21Z" fill="rgb(212, 224, 221)" fill-opacity="0.51"/><path d="M137,126L123,144L124,130Z" fill="rgb(62, 57, 50)" fill-opacity="0.47"/><path d="M29,242L21,251L11,254Z" fill="rgb(17, 19, 19)" fill-opacity="0.56"/><path d="M280,139L261,145L281,84Z" fill="rgb(8, 7, 11)" fill-opacity="0.34"/><path d="M182,258L180,244L191,264Z" fill="rgb(220, 171, 179)" fill-opacity="0.42"/><path d="M49,56L73,57L46,63Z" fill="rgb(75, 88, 80)" fill-opacity="0.37"/><path d="M314,178L307,167L297,173Z" fill="rgb(172, 184, 181)" fill-opacity="0.40"/><path d="M289,81L311,99L324,99Z" fill="rgb(47, 57, 55)" fill-opacity="0.43"/><path d="M53,58L54,55L58,76Z" fill="rgb(32, 35, 34)" fill-opacity="0.53"/><path d="M199,156L207,147L183,161Z" fill="rgb(153, 143, 137)" fill-opacity="0.51"/><path d="M224,51L237,62L230,71Z" fill="rgb(11, 14, 13)" fill-opacity="0.47"/><path d="M134,131L125,113L131,73Z" fill="rgb(45, 41, 38)" fill-opacity="0.61"/><path d="M297,151L300,146L315,161Z" fill="rgb(191, 204, 203)" fill-opacity="0.46"/><path d="M19,92L27,99L26,109Z" fill="rgb(38, 39, 36)" fill-opacity="0.52"/><path d="M0,165L18,182L0,167Z" fill="rgb(29, 34, 30)" fill-opacity="0.46"/><path d="M186,238L204,229L195,239Z" fill="rgb(68, 52, 51)" fill-opacity="0.57"/><path d="M295,170L276,166L316,183Z" fill="rgb(49, 51, 49)" fill-opacity="0.52"/><path d="M235,206L192,286L223,287Z" fill="rgb(238, 224, 217)" fill-opacity="0.43"/><path d="M3,196L20,202L9,193Z" fill="rgb(27, 29, 23)" fill-opacity="0.54"/><path d="M180,148L180,140L191,145Z" fill="rgb(50, 42, 39)" fill-opacity="0.49"/><path d="M175,270L186,294L198,296Z" fill="rgb(164, 152, 144)" fill-opacity="0.47"/><path d="M171,172L187,177L189,154Z" fill="rgb(206, 191, 177)" fill-opacity="0.58"/><path d="M187,6L202,12L208,6Z" fill="rgb(90, 100, 95)" fill-opacity="0.41"/><path d="M259,140L254,132L267,108Z" fill="rgb(102, 102, 96)" fill-opacity="0.34"/><path d="M296,194L287,195L299,199Z" fill="rgb(191, 196, 188)" fill-opacity="0.41"/><path d="M251,52L235,56L261,57Z" fill="rgb(90, 100, 97)" fill-opacity="0.51"/><path d="M34,273L-30,236L11,290Z" fill="rgb(209, 220, 215)" fill-opacity="0.70"/><path d="M115,265L157,280L57,188Z" fill="rgb(12, 9, 12)" fill-opacity="0.46"/><path d="M24,279L22,250L29,257Z" fill="rgb(198, 212, 206)" fill-opacity="0.46"/><path d="M219,226L200,203L211,221Z" fill="rgb(150, 141, 125)" fill-opacity="0.46"/><path d="M27,112L32,102L12,112Z" fill="rgb(154, 160, 156)" fill-opacity="0.49"/><path d="M118,150L112,169L137,150Z" fill="rgb(19, 13, 11)" fill-opacity="0.46"/><path d="M210,184L219,186L227,167Z" fill="rgb(12, 8, 8)" fill-opacity="0.39"/><path d="M28,77L47,73L42,80Z" fill="rgb(178, 192, 184)" fill-opacity="0.60"/><path d="M137,103L147,106L134,131Z" fill="rgb(117, 104, 90)" fill-opacity="0.61"/><path d="M9,124L2,113L2,136Z" fill="rgb(191, 202, 196)" fill-opacity="0.47"/><path d="M196,248L205,236L189,244Z" fill="rgb(192, 149, 158)" fill-opacity="0.44"/><path d="M178,247L165,249L182,259Z" fill="rgb(33, 11, 18)" fill-opacity="0.32"/><path d="M164,285L193,295L134,263Z" fill="rgb(41, 43, 42)" fill-opacity="0.41"/><path d="M145,24L84,-1L207,-18Z" fill="rgb(224, 235, 235)" fill-opacity="0.69"/><path d="M3,134L-6,88L-2,143Z" fill="rgb(179, 191, 185)" fill-opacity="0.55"/><path d="M259,247L257,252L267,256Z" fill="rgb(229, 241, 239)" fill-opacity="0.48"/><path d="M216,77L180,113L201,121Z" fill="rgb(10, 3, 5)" fill-opacity="0.38"/><path d="M298,94L303,121L302,93Z" fill="rgb(195, 205, 203)" fill-opacity="0.44"/><path d="M218,82L255,86L237,180Z" fill="rgb(16, 14, 17)" fill-opacity="0.53"/><path d="M128,63L137,40L155,62Z" fill="rgb(43, 42, 41)" fill-opacity="0.64"/><path d="M31,151L25,156L28,150Z" fill="rgb(163, 170, 165)" fill-opacity="0.55"/><path d="M112,315L155,310L121,288Z" fill="rgb(29, 38, 35)" fill-opacity="0.43"/><path d="M87,55L63,74L89,81Z" fill="rgb(27, 28, 29)" fill-opacity="0.62"/><path d="M301,97L301,111L306,93Z" fill="rgb(201, 210, 207)" fill-opacity="0.47"/><path d="M156,181L171,165L168,178Z" fill="rgb(64, 50, 45)" fill-opacity="0.49"/><path d="M148,216L145,255L138,239Z" fill="rgb(150, 144, 134)" fill-opacity="0.57"/><path d="M114,97L112,96L105,99Z" fill="rgb(102, 102, 99)" fill-opacity="0.51"/><path d="M12,247L-17,239L-6,202Z" fill="rgb(188, 200, 195)" fill-opacity="0.49"/><path d="M15,108L11,112L18,111Z" fill="rgb(231, 239, 238)" fill-opacity="0.50"/><path d="M20,150L-1,145L15,154Z" fill="rgb(19, 19, 17)" fill-opacity="0.37"/><path d="M84,57L81,53L98,57Z" fill="rgb(185, 193, 188)" fill-opacity="0.41"/><path d="M177,183L169,166L177,200Z" fill="rgb(123, 108, 90)" fill-opacity="0.47"/><path d="M173,164L183,149L186,163Z" fill="rgb(244, 233, 225)" fill-opacity="0.51"/><path d="M305,106L306,114L314,91Z" fill="rgb(23, 28, 24)" fill-opacity="0.49"/><path d="M227,38L219,54L219,31Z" fill="rgb(215, 228, 225)" fill-opacity="0.36"/><path d="M284,76L254,80L259,96Z" fill="rgb(32, 32, 30)" fill-opacity="0.46"/><path d="M62,267L54,257L40,258Z" fill="rgb(72, 74, 72)" fill-opacity="0.55"/><path d="M-1,152L5,144L-11,123Z" fill="rgb(75, 85, 78)" fill-opacity="0.58"/><path d="M307,184L359,145L315,206Z" fill="rgb(242, 253, 255)" fill-opacity="0.56"/><path d="M73,267L87,131L109,205Z" fill="rgb(14, 11, 15)" fill-opacity="0.72"/><path d="M167,80L152,78L165,84Z" fill="rgb(84, 83, 78)" fill-opacity="0.59"/><path d="M215,205L207,201L220,204Z" fill="rgb(52, 47, 41)" fill-opacity="0.56"/><path d="M44,108L37,125L77,113Z" fill="rgb(15, 12, 16)" fill-opacity="0.57"/><path d="M30,244L36,268L46,266Z" fill="rgb(28, 29, 30)" fill-opacity="0.56"/><path d="M193,41L164,48L196,25Z" fill="rgb(51, 54, 51)" fill-opacity="0.52"/><path d="M122,67L106,52L109,35Z" fill="rgb(63, 70, 64)" fill-opacity="0.39"/><path d="M303,175L303,184L306,194Z" fill="rgb(191, 195, 191)" fill-opacity="0.45"/><path d="M268,142L236,184L265,174Z" fill="rgb(6, 4, 8)" fill-opacity="0.38"/><path d="M200,248L184,247L198,255Z" fill="rgb(61, 35, 39)" fill-opacity="0.47"/><path d="M308,190L276,191L309,197Z" fill="rgb(66, 67, 63)" fill-opacity="0.46"/><path d="M286,178L304,164L313,164Z" fill="rgb(7, 11, 11)" fill-opacity="0.41"/><path d="M208,171L220,168L209,160Z" fill="rgb(212, 200, 191)" fill-opacity="0.56"/><path d="M222,167L210,154L227,161Z" fill="rgb(22, 17, 15)" fill-opacity="0.49"/><path d="M53,261L52,267L43,271Z" fill="rgb(138, 151, 147)" fill-opacity="0.53"/><path d="M94,31L95,22L89,42Z" fill="rgb(11, 19, 14)" fill-opacity="0.51"/><path d="M119,105L114,143L125,135Z" fill="rgb(106, 93, 79)" fill-opacity="0.54"/><path d="M182,300L192,309L224,287Z" fill="rgb(241, 239, 229)" fill-opacity="0.55"/><path d="M237,241L242,287L263,220Z" fill="rgb(31, 35, 35)" fill-opacity="0.68"/><path d="M11,167L-48,152L-16,169Z" fill="rgb(237, 248, 246)" fill-opacity="0.33"/><path d="M35,92L59,90L29,116Z" fill="rgb(78, 80, 75)" fill-opacity="0.44"/><path d="M157,294L159,287L138,279Z" fill="rgb(133, 134, 122)" fill-opacity="0.55"/><path d="M12,222L9,232L2,208Z" fill="rgb(62, 65, 58)" fill-opacity="0.57"/><path d="M266,50L278,71L261,61Z" fill="rgb(208, 220, 220)" fill-opacity="0.54"/><path d="M33,150L20,183L93,147Z" fill="rgb(34, 32, 33)" fill-opacity="0.75"/><path d="M145,109L123,149L147,149Z" fill="rgb(153, 139, 122)" fill-opacity="0.32"/><path d="M178,241L172,244L176,229Z" fill="rgb(255, 221, 225)" fill-opacity="0.54"/><path d="M68,40L76,43L68,32Z" fill="rgb(103, 112, 107)" fill-opacity="0.54"/><path d="M235,12L220,13L233,14Z" fill="rgb(26, 34, 30)" fill-opacity="0.48"/><path d="M172,106L171,140L177,107Z" fill="rgb(110, 97, 88)" fill-opacity="0.69"/><path d="M14,180L31,184L11,186Z" fill="rgb(105, 110, 101)" fill-opacity="0.39"/><path d="M221,279L233,258L206,215Z" fill="rgb(231, 221, 212)" fill-opacity="0.59"/><path d="M44,69L-45,56L51,52Z" fill="rgb(224, 233, 231)" fill-opacity="0.54"/><path d="M271,108L264,116L273,120Z" fill="rgb(94, 91, 88)" fill-opacity="0.40"/><path d="M160,317L133,287L170,286Z" fill="rgb(183, 166, 151)" fill-opacity="0.30"/><path d="M180,147L145,151L168,133Z" fill="rgb(219, 200, 188)" fill-opacity="0.47"/><path d="M284,233L289,244L288,230Z" fill="rgb(159, 172, 166)" fill-opacity="0.49"/><path d="M208,307L196,315L248,303Z" fill="rgb(37, 62, 55)" fill-opacity="0.56"/><path d="M170,139L172,118L154,119Z" fill="rgb(199, 182, 170)" fill-opacity="0.50"/><path d="M5,182L0,191L-29,171Z" fill="rgb(42, 52, 38)" fill-opacity="0.47"/><path d="M149,35L138,45L186,95Z" fill="rgb(25, 24, 25)" fill-opacity="0.56"/><path d="M186,111L172,107L181,120Z" fill="rgb(77, 65, 57)" fill-opacity="0.44"/><path d="M250,184L247,147L282,151Z" fill="rgb(14, 13, 16)" fill-opacity="0.43"/><path d="M294,123L282,113L272,126Z" fill="rgb(52, 52, 51)" fill-opacity="0.49"/><path d="M142,247L123,238L138,233Z" fill="rgb(78, 78, 72)" fill-opacity="0.47"/><path d="M202,219L203,228L192,221Z" fill="rgb(66, 39, 39)" fill-opacity="0.49"/><path d="M206,77L176,96L194,58Z" fill="rgb(46, 43, 41)" fill-opacity="0.52"/><path d="M309,128L291,125L299,119Z" fill="rgb(27, 28, 28)" fill-opacity="0.56"/><path d="M153,75L154,64L150,65Z" fill="rgb(120, 115, 109)" fill-opacity="0.48"/><path d="M151,210L147,191L139,216Z" fill="rgb(162, 140, 133)" fill-opacity="0.42"/><path d="M301,209L310,216L321,169Z" fill="rgb(184, 195, 194)" fill-opacity="0.38"/><path d="M119,180L142,166L120,199Z" fill="rgb(76, 62, 51)" fill-opacity="0.41"/><path d="M301,172L308,177L310,174Z" fill="rgb(211, 220, 216)" fill-opacity="0.51"/><path d="M63,201L63,189L77,196Z" fill="rgb(49, 47, 49)" fill-opacity="0.50"/><path d="M118,69L83,82L123,45Z" fill="rgb(41, 41, 41)" fill-opacity="0.60"/><path d="M238,82L246,86L248,60Z" fill="rgb(74, 73, 68)" fill-opacity="0.70"/><path d="M32,90L28,83L26,101Z" fill="rgb(205, 216, 211)" fill-opacity="0.43"/><path d="M2,135L26,123L3,143Z" fill="rgb(23, 24, 23)" fill-opacity="0.65"/><path d="M199,197L227,213L237,246Z" fill="rgb(230, 226, 216)" fill-opacity="0.37"/><path d="M270,321L268,280L292,329Z" fill="rgb(3, 2, 4)" fill-opacity="0.47"/><path d="M205,32L203,25L199,32Z" fill="rgb(187, 193, 191)" fill-opacity="0.50"/><path d="M82,17L74,20L83,43Z" fill="rgb(111, 121, 118)" fill-opacity="0.47"/><path d="M182,7L141,21L203,12Z" fill="rgb(175, 189, 187)" fill-opacity="0.56"/><path d="M90,92L87,103L114,101Z" fill="rgb(60, 59, 57)" fill-opacity="0.65"/><path d="M280,211L263,203L282,233Z" fill="rgb(53, 53, 48)" fill-opacity="0.49"/><path d="M235,29L244,27L247,13Z" fill="rgb(206, 217, 218)" fill-opacity="0.48"/><path d="M299,159L269,168L286,151Z" fill="rgb(63, 66, 63)" fill-opacity="0.50"/><path d="M290,162L297,166L306,155Z" fill="rgb(28, 32, 29)" fill-opacity="0.43"/><path d="M1,171L0,176L-3,154Z" fill="rgb(27, 32, 28)" fill-opacity="0.56"/><path d="M210,42L220,51L236,48Z" fill="rgb(136, 148, 144)" fill-opacity="0.55"/><path d="M211,321L172,287L161,297Z" fill="rgb(227, 224, 215)" fill-opacity="0.42"/><path d="M285,164L285,158L302,172Z" fill="rgb(129, 136, 132)" fill-opacity="0.46"/><path d="M142,158L165,162L128,148Z" fill="rgb(25, 24, 23)" fill-opacity="0.50"/><path d="M59,34L91,35L83,26Z" fill="rgb(169, 181, 177)" fill-opacity="0.63"/><path d="M8,166L8,158L26,176Z" fill="rgb(45, 48, 44)" fill-opacity="0.52"/><path d="M165,42L161,41L164,28Z" fill="rgb(97, 106, 102)" fill-opacity="0.49"/><path d="M308,200L324,191L310,210Z" fill="rgb(230, 241, 242)" fill-opacity="0.57"/><path d="M143,185L158,186L133,199Z" fill="rgb(121, 94, 86)" fill-opacity="0.50"/><path d="M239,202L239,217L226,205Z" fill="rgb(204, 199, 183)" fill-opacity="0.51"/><path d="M161,189L150,216L162,208Z" fill="rgb(255, 242, 242)" fill-opacity="0.33"/><path d="M151,169L139,173L127,173Z" fill="rgb(57, 54, 53)" fill-opacity="0.47"/><path d="M283,85L283,76L277,87Z" fill="rgb(88, 99, 96)" fill-opacity="0.59"/><path d="M210,186L210,192L228,170Z" fill="rgb(16, 14, 13)" fill-opacity="0.49"/><path d="M197,161L197,153L206,157Z" fill="rgb(4, 3, 5)" fill-opacity="0.47"/><path d="M126,235L115,235L125,274Z" fill="rgb(25, 21, 20)" fill-opacity="0.45"/><path d="M179,191L181,169L192,173Z" fill="rgb(189, 173, 152)" fill-opacity="0.48"/><path d="M202,6L143,-1L214,-2Z" fill="rgb(229, 241, 243)" fill-opacity="0.31"/><path d="M169,52L172,31L202,24Z" fill="rgb(35, 37, 35)" fill-opacity="0.39"/><path d="M14,128L19,125L8,124Z" fill="rgb(181, 195, 186)" fill-opacity="0.57"/><path d="M36,44L81,49L41,59Z" fill="rgb(202, 214, 210)" fill-opacity="0.43"/><path d="M106,26L123,36L105,33Z" fill="rgb(109, 122, 119)" fill-opacity="0.47"/><path d="M124,271L133,290L118,288Z" fill="rgb(43, 35, 29)" fill-opacity="0.37"/><path d="M187,14L172,17L185,29Z" fill="rgb(65, 71, 68)" fill-opacity="0.47"/><path d="M270,312L250,331L259,294Z" fill="rgb(55, 89, 81)" fill-opacity="0.54"/><path d="M156,239L161,224L143,211Z" fill="rgb(199, 187, 176)" fill-opacity="0.51"/><path d="M255,222L253,217L264,222Z" fill="rgb(124, 122, 113)" fill-opacity="0.51"/><path d="M117,46L134,41L138,32Z" fill="rgb(201, 213, 210)" fill-opacity="0.52"/><path d="M11,147L8,139L20,131Z" fill="rgb(161, 169, 163)" fill-opacity="0.50"/><path d="M196,209L200,202L200,214Z" fill="rgb(16, 15, 0)" fill-opacity="0.34"/><path d="M276,73L275,68L241,115Z" fill="rgb(43, 44, 43)" fill-opacity="0.40"/><path d="M233,130L221,138L221,103Z" fill="rgb(42, 41, 38)" fill-opacity="0.53"/><path d="M132,170L145,164L125,164Z" fill="rgb(26, 21, 19)" fill-opacity="0.54"/><path d="M311,155L300,151L312,158Z" fill="rgb(178, 186, 184)" fill-opacity="0.45"/><path d="M45,143L34,146L26,143Z" fill="rgb(135, 141, 136)" fill-opacity="0.48"/><path d="M138,267L133,256L174,232Z" fill="rgb(102, 95, 89)" fill-opacity="0.38"/><path d="M106,83L96,88L111,70Z" fill="rgb(86, 85, 82)" fill-opacity="0.45"/><path d="M100,13L71,28L100,16Z" fill="rgb(122, 133, 128)" fill-opacity="0.38"/><path d="M234,29L227,33L211,29Z" fill="rgb(59, 63, 59)" fill-opacity="0.61"/><path d="M265,70L259,76L284,68Z" fill="rgb(161, 173, 169)" fill-opacity="0.50"/><path d="M3,225L8,248L7,225Z" fill="rgb(144, 155, 149)" fill-opacity="0.57"/><path d="M143,185L140,164L158,179Z" fill="rgb(207, 195, 191)" fill-opacity="0.36"/><path d="M87,36L85,17L84,39Z" fill="rgb(182, 195, 190)" fill-opacity="0.50"/><path d="M204,13L190,11L193,19Z" fill="rgb(181, 194, 191)" fill-opacity="0.63"/><path d="M56,54L54,60L57,76Z" fill="rgb(22, 25, 23)" fill-opacity="0.47"/><path d="M51,77L56,56L59,56Z" fill="rgb(44, 47, 44)" fill-opacity="0.49"/><path d="M238,304L249,318L250,302Z" fill="rgb(12, 25, 23)" fill-opacity="0.45"/><path d="M69,82L71,92L79,80Z" fill="rgb(52, 53, 54)" fill-opacity="0.45"/><path d="M208,147L222,140L218,149Z" fill="rgb(140, 130, 125)" fill-opacity="0.45"/><path d="M171,113L165,108L173,154Z" fill="rgb(177, 160, 150)" fill-opacity="0.49"/><path d="M138,194L122,196L124,222Z" fill="rgb(133, 120, 107)" fill-opacity="0.46"/><path d="M176,113L193,121L185,135Z" fill="rgb(114, 96, 86)" fill-opacity="0.54"/><path d="M186,255L195,248L183,245Z" fill="rgb(107, 65, 72)" fill-opacity="0.52"/><path d="M289,106L292,97L299,102Z" fill="rgb(79, 84, 79)" fill-opacity="0.49"/></svg>